<svg width="24" height="26" viewBox="0 0 24 26" fill="none" xmlns="http://www.w3.org/2000/svg">
<path d="M6.66667 6.33333V17C6.66667 17.7072 6.94762 18.3855 7.44772 18.8856C7.94782 19.3857 8.62609 19.6667 9.33334 19.6667H17.3333M6.66667 6.33333V3.66667C6.66667 2.95942 6.94762 2.28115 7.44772 1.78105C7.94782 1.28095 8.62609 1 9.33334 1H15.448C15.8016 1.00008 16.1407 1.1406 16.3907 1.39067L22.276 7.276C22.5261 7.52599 22.6666 7.86507 22.6667 8.21867V17C22.6667 17.7072 22.3857 18.3855 21.8856 18.8856C21.3855 19.3857 20.7072 19.6667 20 19.6667H17.3333M6.66667 6.33333H4C3.29276 6.33333 2.61448 6.61428 2.11438 7.11438C1.61429 7.61448 1.33334 8.29276 1.33334 9V22.3333C1.33334 23.0406 1.61429 23.7189 2.11438 24.219C2.61448 24.719 3.29276 25 4 25H14.6667C15.3739 25 16.0522 24.719 16.5523 24.219C17.0524 23.7189 17.3333 23.0406 17.3333 22.3333V19.6667" stroke="url(#paint0_linear_1_173)" stroke-width="2" stroke-linecap="round" stroke-linejoin="round"/>
<defs>
<linearGradient id="paint0_linear_1_173" x1="2.99999" y1="1" x2="20.5" y2="1" gradientUnits="userSpaceOnUse">
<stop stop-color="#3467AE"/>
<stop offset="1" stop-color="#0C4969"/>
</linearGradient>
</defs>
</svg>
